<svg width="567" height="353" viewBox="0 0 567 353" fill="none" xmlns="http://www.w3.org/2000/svg">
<g clip-path="url(#clip0_1_88)">
<path d="M358.628 98.7737H288.297V84.9072C288.297 84.0276 287.914 83.1839 287.232 82.5619C286.549 81.9399 285.624 81.5905 284.659 81.5905H264.006V66.8199C264.006 66.2661 263.765 65.735 263.335 65.3435C262.906 64.9519 262.323 64.7319 261.716 64.7319H235.112C234.505 64.7319 233.922 64.9519 233.493 65.3435C233.063 65.735 232.822 66.2661 232.822 66.8199V81.5955H208.542C207.577 81.5955 206.651 81.9449 205.969 82.5669C205.287 83.1889 204.903 84.0326 204.903 84.9122V98.7787H137.839C137.644 98.78 137.457 98.8516 137.319 98.9779C137.182 99.1042 137.104 99.275 137.104 99.453V283.528C137.104 283.706 137.182 283.877 137.319 284.003C137.457 284.13 137.644 284.201 137.839 284.202H182.41C182.606 284.202 182.794 284.131 182.933 284.005C183.072 283.878 183.149 283.707 183.149 283.528V258.762C183.151 258.584 183.229 258.413 183.368 258.287C183.506 258.161 183.693 258.089 183.889 258.088H202.717C202.913 258.089 203.1 258.161 203.239 258.287C203.377 258.413 203.455 258.584 203.457 258.762V283.528C203.457 283.706 203.534 283.877 203.672 284.003C203.809 284.13 203.996 284.201 204.191 284.202H292.264C292.46 284.201 292.648 284.13 292.786 284.004C292.924 283.877 293.003 283.707 293.004 283.528V258.762C293.004 258.584 293.081 258.414 293.219 258.287C293.356 258.161 293.543 258.089 293.738 258.088H312.566C312.763 258.088 312.951 258.159 313.089 258.285C313.228 258.412 313.306 258.583 313.306 258.762V283.528C313.308 283.707 313.386 283.877 313.524 284.004C313.663 284.13 313.85 284.201 314.046 284.202H358.617C358.813 284.201 359 284.13 359.138 284.004C359.277 283.877 359.355 283.707 359.357 283.528V99.448C359.355 99.2713 359.278 99.102 359.142 98.9761C359.006 98.8502 358.822 98.7776 358.628 98.7737ZM175.171 249.486C175.171 249.664 175.094 249.834 174.956 249.96C174.818 250.085 174.632 250.156 174.437 250.156H146.907C146.811 250.156 146.715 250.14 146.625 250.106C146.535 250.073 146.453 250.024 146.385 249.961C146.316 249.899 146.261 249.825 146.224 249.744C146.187 249.662 146.168 249.575 146.168 249.486V240.94C146.168 240.851 146.187 240.764 146.224 240.682C146.261 240.6 146.316 240.526 146.384 240.463C146.453 240.4 146.535 240.351 146.624 240.317C146.714 240.283 146.81 240.265 146.907 240.265H174.453C174.649 240.267 174.835 240.338 174.973 240.465C175.11 240.591 175.188 240.762 175.188 240.94L175.171 249.486ZM175.171 227.338C175.172 227.426 175.153 227.514 175.117 227.596C175.08 227.678 175.026 227.752 174.958 227.815C174.89 227.877 174.809 227.927 174.719 227.961C174.63 227.995 174.534 228.012 174.437 228.012H146.907C146.81 228.013 146.714 227.996 146.624 227.962C146.533 227.929 146.452 227.879 146.383 227.816C146.314 227.754 146.259 227.679 146.223 227.597C146.186 227.515 146.167 227.427 146.168 227.338V218.771C146.167 218.683 146.186 218.595 146.223 218.513C146.259 218.43 146.314 218.356 146.383 218.293C146.452 218.23 146.533 218.181 146.624 218.147C146.714 218.113 146.81 218.096 146.907 218.097H174.453C174.55 218.097 174.646 218.115 174.736 218.148C174.825 218.182 174.906 218.232 174.975 218.295C175.043 218.358 175.097 218.432 175.133 218.514C175.17 218.596 175.188 218.683 175.188 218.771L175.171 227.338ZM175.171 205.195C175.171 205.373 175.094 205.543 174.956 205.67C174.819 205.796 174.632 205.868 174.437 205.869H146.907C146.81 205.869 146.714 205.852 146.624 205.818C146.535 205.784 146.453 205.734 146.384 205.671C146.316 205.609 146.261 205.535 146.224 205.453C146.187 205.371 146.168 205.283 146.168 205.195V196.623C146.168 196.534 146.187 196.447 146.224 196.365C146.261 196.283 146.316 196.209 146.384 196.146C146.453 196.084 146.535 196.034 146.624 196C146.714 195.966 146.81 195.949 146.907 195.949H174.453C174.649 195.95 174.835 196.022 174.973 196.148C175.11 196.274 175.188 196.445 175.188 196.623L175.171 205.195ZM175.171 183.046C175.172 183.135 175.153 183.222 175.117 183.304C175.08 183.386 175.026 183.46 174.958 183.523C174.89 183.586 174.809 183.635 174.719 183.669C174.63 183.703 174.534 183.721 174.437 183.721H146.907C146.81 183.721 146.714 183.704 146.624 183.671C146.533 183.637 146.452 183.587 146.383 183.525C146.314 183.462 146.259 183.387 146.223 183.305C146.186 183.223 146.167 183.135 146.168 183.046V174.505C146.167 174.416 146.186 174.328 146.223 174.246C146.259 174.164 146.314 174.089 146.383 174.026C146.452 173.964 146.533 173.914 146.624 173.88C146.714 173.847 146.81 173.83 146.907 173.83H174.453C174.55 173.83 174.646 173.848 174.736 173.882C174.825 173.916 174.906 173.965 174.975 174.028C175.043 174.091 175.097 174.165 175.133 174.247C175.17 174.329 175.188 174.416 175.188 174.505L175.171 183.046ZM175.171 160.903C175.171 161.081 175.094 161.252 174.956 161.378C174.819 161.504 174.632 161.576 174.437 161.577H146.907C146.81 161.577 146.714 161.56 146.624 161.526C146.535 161.492 146.453 161.442 146.384 161.38C146.316 161.317 146.261 161.243 146.224 161.161C146.187 161.079 146.168 160.991 146.168 160.903V152.331C146.168 152.243 146.187 152.156 146.224 152.074C146.261 151.992 146.316 151.918 146.385 151.856C146.453 151.794 146.535 151.745 146.625 151.711C146.715 151.678 146.811 151.661 146.907 151.662H174.453C174.648 151.662 174.835 151.732 174.973 151.858C175.11 151.984 175.188 152.154 175.188 152.331L175.171 160.903ZM175.171 138.76C175.171 138.937 175.094 139.107 174.956 139.233C174.818 139.358 174.632 139.429 174.437 139.429H146.907C146.811 139.43 146.715 139.413 146.625 139.379C146.535 139.346 146.453 139.297 146.385 139.235C146.316 139.172 146.261 139.098 146.224 139.017C146.187 138.935 146.168 138.848 146.168 138.76V130.188C146.168 130.099 146.187 130.012 146.224 129.93C146.261 129.848 146.316 129.774 146.384 129.711C146.453 129.649 146.535 129.599 146.624 129.565C146.714 129.531 146.81 129.514 146.907 129.514H174.453C174.649 129.515 174.835 129.587 174.973 129.713C175.11 129.839 175.188 130.01 175.188 130.188L175.171 138.76ZM175.171 116.611C175.172 116.7 175.153 116.787 175.117 116.869C175.08 116.951 175.026 117.025 174.958 117.088C174.89 117.15 174.809 117.2 174.719 117.234C174.63 117.268 174.534 117.286 174.437 117.286H146.907C146.81 117.286 146.714 117.269 146.624 117.236C146.533 117.202 146.452 117.152 146.383 117.09C146.314 117.027 146.259 116.952 146.223 116.87C146.186 116.788 146.167 116.7 146.168 116.611V108.07C146.167 107.981 146.186 107.893 146.223 107.811C146.259 107.729 146.314 107.654 146.383 107.591C146.452 107.529 146.533 107.479 146.624 107.445C146.714 107.412 146.81 107.395 146.907 107.395H174.453C174.55 107.395 174.646 107.413 174.736 107.447C174.825 107.481 174.906 107.53 174.975 107.593C175.043 107.656 175.097 107.73 175.133 107.812C175.17 107.894 175.188 107.981 175.188 108.07L175.171 116.611ZM240.439 249.481C240.439 249.57 240.419 249.657 240.382 249.739C240.345 249.82 240.29 249.894 240.222 249.956C240.153 250.019 240.071 250.068 239.981 250.101C239.892 250.135 239.796 250.151 239.699 250.151H212.169C211.974 250.151 211.787 250.08 211.648 249.955C211.51 249.83 211.431 249.659 211.43 249.481V240.94C211.431 240.761 211.509 240.591 211.648 240.464C211.786 240.338 211.974 240.267 212.169 240.265H239.699C239.796 240.265 239.892 240.283 239.982 240.317C240.072 240.351 240.153 240.4 240.222 240.463C240.291 240.526 240.345 240.6 240.382 240.682C240.419 240.764 240.439 240.851 240.439 240.94V249.481ZM240.439 227.333C240.439 227.422 240.421 227.51 240.384 227.592C240.347 227.674 240.292 227.749 240.224 227.811C240.155 227.874 240.073 227.924 239.983 227.957C239.893 227.991 239.796 228.008 239.699 228.007H212.169C211.973 228.007 211.785 227.936 211.646 227.81C211.508 227.683 211.43 227.512 211.43 227.333V218.771C211.43 218.593 211.508 218.421 211.646 218.295C211.785 218.168 211.973 218.097 212.169 218.097H239.699C239.796 218.096 239.893 218.113 239.983 218.147C240.073 218.181 240.155 218.23 240.224 218.293C240.292 218.356 240.347 218.43 240.384 218.513C240.421 218.595 240.439 218.683 240.439 218.771V227.333ZM240.439 205.19C240.439 205.278 240.419 205.366 240.382 205.448C240.345 205.53 240.291 205.604 240.222 205.667C240.153 205.729 240.072 205.779 239.982 205.813C239.892 205.847 239.796 205.864 239.699 205.864H212.169C211.974 205.863 211.786 205.791 211.648 205.665C211.509 205.539 211.431 205.368 211.43 205.19V196.623C211.431 196.445 211.509 196.274 211.648 196.148C211.786 196.021 211.974 195.95 212.169 195.949H239.699C239.796 195.949 239.892 195.966 239.982 196C240.072 196.034 240.153 196.084 240.222 196.146C240.291 196.209 240.345 196.283 240.382 196.365C240.419 196.447 240.439 196.534 240.439 196.623V205.19ZM240.439 183.041C240.439 183.13 240.421 183.218 240.384 183.3C240.347 183.382 240.292 183.457 240.224 183.52C240.155 183.582 240.073 183.632 239.983 183.666C239.893 183.699 239.796 183.716 239.699 183.716H212.169C211.973 183.716 211.785 183.645 211.646 183.518C211.508 183.392 211.43 183.22 211.43 183.041V174.505C211.43 174.326 211.508 174.154 211.646 174.028C211.785 173.901 211.973 173.83 212.169 173.83H239.699C239.796 173.83 239.893 173.847 239.983 173.88C240.073 173.914 240.155 173.964 240.224 174.026C240.292 174.089 240.347 174.164 240.384 174.246C240.421 174.328 240.439 174.416 240.439 174.505V183.041ZM240.439 160.898C240.439 160.987 240.419 161.074 240.382 161.156C240.345 161.238 240.291 161.312 240.222 161.375C240.153 161.437 240.072 161.487 239.982 161.521C239.892 161.555 239.796 161.572 239.699 161.572H212.169C211.974 161.571 211.786 161.5 211.648 161.373C211.509 161.247 211.431 161.076 211.43 160.898V152.331C211.431 152.153 211.51 151.983 211.648 151.858C211.787 151.732 211.974 151.662 212.169 151.662H239.699C239.796 151.661 239.892 151.678 239.981 151.711C240.071 151.745 240.153 151.794 240.222 151.856C240.29 151.918 240.345 151.992 240.382 152.074C240.419 152.156 240.439 152.243 240.439 152.331V160.898ZM240.439 138.755C240.439 138.843 240.419 138.93 240.382 139.012C240.345 139.093 240.29 139.167 240.222 139.23C240.153 139.292 240.071 139.341 239.981 139.374C239.892 139.408 239.796 139.425 239.699 139.424H212.169C211.974 139.424 211.787 139.354 211.648 139.228C211.51 139.103 211.431 138.933 211.43 138.755V130.188C211.431 130.01 211.509 129.839 211.648 129.713C211.786 129.586 211.974 129.515 212.169 129.514H239.699C239.796 129.514 239.892 129.531 239.982 129.565C240.072 129.599 240.153 129.649 240.222 129.711C240.291 129.774 240.345 129.848 240.382 129.93C240.419 130.012 240.439 130.099 240.439 130.188V138.755ZM240.439 116.606C240.439 116.695 240.421 116.783 240.384 116.865C240.347 116.947 240.292 117.022 240.224 117.085C240.155 117.147 240.073 117.197 239.983 117.231C239.893 117.264 239.796 117.281 239.699 117.281H212.169C211.973 117.281 211.785 117.21 211.646 117.083C211.508 116.957 211.43 116.785 211.43 116.606V108.07C211.43 107.891 211.508 107.719 211.646 107.593C211.785 107.466 211.973 107.395 212.169 107.395H239.699C239.796 107.395 239.893 107.412 239.983 107.445C240.073 107.479 240.155 107.529 240.224 107.591C240.292 107.654 240.347 107.729 240.384 107.811C240.421 107.893 240.439 107.981 240.439 108.07V116.606ZM285.037 249.476C285.037 249.565 285.018 249.652 284.98 249.734C284.943 249.815 284.889 249.889 284.82 249.951C284.751 250.014 284.67 250.063 284.58 250.096C284.49 250.13 284.394 250.146 284.297 250.146H256.768C256.572 250.146 256.385 250.075 256.247 249.95C256.108 249.825 256.029 249.654 256.028 249.476V240.94C256.029 240.761 256.108 240.591 256.246 240.464C256.385 240.338 256.572 240.267 256.768 240.265H284.297C284.493 240.265 284.681 240.336 284.82 240.463C284.959 240.589 285.037 240.761 285.037 240.94V249.476ZM285.037 227.328C285.038 227.417 285.019 227.505 284.982 227.587C284.945 227.669 284.891 227.744 284.822 227.806C284.753 227.869 284.671 227.919 284.581 227.952C284.491 227.986 284.395 228.003 284.297 228.002H256.768C256.571 228.002 256.383 227.931 256.245 227.805C256.106 227.678 256.028 227.507 256.028 227.328V218.771C256.028 218.593 256.106 218.421 256.245 218.295C256.383 218.168 256.571 218.097 256.768 218.097H284.297C284.395 218.096 284.491 218.113 284.581 218.147C284.671 218.181 284.753 218.23 284.822 218.293C284.891 218.356 284.945 218.43 284.982 218.513C285.019 218.595 285.038 218.683 285.037 218.771V227.328ZM285.037 205.185C285.037 205.364 284.959 205.535 284.82 205.661C284.681 205.788 284.493 205.859 284.297 205.859H256.768C256.572 205.858 256.385 205.786 256.246 205.66C256.108 205.534 256.029 205.363 256.028 205.185V196.623C256.029 196.445 256.108 196.274 256.246 196.148C256.385 196.021 256.572 195.95 256.768 195.949H284.297C284.493 195.949 284.681 196.02 284.82 196.146C284.959 196.273 285.037 196.444 285.037 196.623V205.185ZM285.037 183.036C285.038 183.125 285.019 183.213 284.982 183.295C284.945 183.377 284.891 183.452 284.822 183.515C284.753 183.577 284.671 183.627 284.581 183.661C284.491 183.694 284.395 183.711 284.297 183.711H256.768C256.571 183.711 256.383 183.64 256.245 183.513C256.106 183.387 256.028 183.215 256.028 183.036V174.505C256.028 174.326 256.106 174.154 256.245 174.028C256.383 173.901 256.571 173.83 256.768 173.83H284.297C284.395 173.83 284.491 173.847 284.581 173.88C284.671 173.914 284.753 173.964 284.822 174.026C284.891 174.089 284.945 174.164 284.982 174.246C285.019 174.328 285.038 174.416 285.037 174.505V183.036ZM285.037 160.893C285.037 161.072 284.959 161.243 284.82 161.37C284.681 161.496 284.493 161.567 284.297 161.567H256.768C256.572 161.566 256.385 161.495 256.246 161.368C256.108 161.242 256.029 161.071 256.028 160.893V152.331C256.029 152.153 256.108 151.983 256.247 151.858C256.385 151.732 256.572 151.662 256.768 151.662H284.297C284.394 151.661 284.49 151.678 284.58 151.711C284.67 151.745 284.751 151.794 284.82 151.856C284.889 151.918 284.943 151.992 284.98 152.074C285.018 152.156 285.037 152.243 285.037 152.331V160.893ZM285.037 138.75C285.037 138.838 285.018 138.925 284.98 139.007C284.943 139.088 284.889 139.162 284.82 139.225C284.751 139.287 284.67 139.336 284.58 139.369C284.49 139.403 284.394 139.42 284.297 139.419H256.768C256.572 139.419 256.385 139.349 256.247 139.223C256.108 139.098 256.029 138.928 256.028 138.75V130.188C256.029 130.01 256.108 129.839 256.246 129.713C256.385 129.586 256.572 129.515 256.768 129.514H284.297C284.493 129.514 284.681 129.585 284.82 129.711C284.959 129.838 285.037 130.009 285.037 130.188V138.75ZM285.037 116.601C285.038 116.69 285.019 116.778 284.982 116.86C284.945 116.942 284.891 117.017 284.822 117.08C284.753 117.142 284.671 117.192 284.581 117.226C284.491 117.259 284.395 117.276 284.297 117.276H256.768C256.571 117.276 256.383 117.205 256.245 117.078C256.106 116.952 256.028 116.78 256.028 116.601V108.07C256.028 107.891 256.106 107.719 256.245 107.593C256.383 107.466 256.571 107.395 256.768 107.395H284.297C284.395 107.395 284.491 107.412 284.581 107.445C284.671 107.479 284.753 107.529 284.822 107.591C284.891 107.654 284.945 107.729 284.982 107.811C285.019 107.893 285.038 107.981 285.037 108.07V116.601ZM350.304 249.471C350.303 249.649 350.224 249.82 350.086 249.945C349.947 250.07 349.76 250.141 349.564 250.141H322.035C321.938 250.141 321.842 250.125 321.752 250.091C321.663 250.058 321.581 250.009 321.512 249.946C321.444 249.884 321.389 249.81 321.352 249.729C321.314 249.647 321.295 249.56 321.295 249.471V240.94C321.295 240.761 321.373 240.589 321.512 240.463C321.651 240.336 321.839 240.265 322.035 240.265H349.564C349.76 240.267 349.948 240.338 350.086 240.464C350.224 240.591 350.303 240.761 350.304 240.94V249.471ZM350.304 227.323C350.304 227.502 350.226 227.673 350.088 227.8C349.949 227.926 349.761 227.997 349.564 227.997H322.035C321.938 227.998 321.841 227.981 321.751 227.947C321.661 227.914 321.579 227.864 321.51 227.801C321.441 227.739 321.387 227.664 321.35 227.582C321.313 227.5 321.295 227.412 321.295 227.323V218.771C321.295 218.683 321.313 218.595 321.35 218.513C321.387 218.43 321.441 218.356 321.51 218.293C321.579 218.23 321.661 218.181 321.751 218.147C321.841 218.113 321.938 218.096 322.035 218.097H349.564C349.761 218.097 349.949 218.168 350.088 218.295C350.226 218.421 350.304 218.593 350.304 218.771V227.323ZM350.304 205.18C350.303 205.358 350.224 205.529 350.086 205.655C349.948 205.781 349.76 205.853 349.564 205.854H322.035C321.839 205.854 321.651 205.783 321.512 205.656C321.373 205.53 321.295 205.359 321.295 205.18V196.623C321.295 196.444 321.373 196.273 321.512 196.146C321.651 196.02 321.839 195.949 322.035 195.949H349.564C349.76 195.95 349.948 196.021 350.086 196.148C350.224 196.274 350.303 196.445 350.304 196.623V205.18ZM350.304 183.031C350.304 183.21 350.226 183.382 350.088 183.508C349.949 183.635 349.761 183.706 349.564 183.706H322.035C321.843 183.704 321.659 183.635 321.523 183.511C321.387 183.388 321.309 183.221 321.306 183.046V174.505C321.306 174.416 321.324 174.328 321.361 174.246C321.398 174.164 321.452 174.089 321.521 174.026C321.59 173.964 321.672 173.914 321.762 173.88C321.852 173.847 321.949 173.83 322.046 173.83H349.575C349.772 173.83 349.96 173.901 350.099 174.028C350.237 174.154 350.315 174.326 350.315 174.505L350.304 183.031ZM350.304 160.888C350.303 161.066 350.224 161.237 350.086 161.363C349.948 161.49 349.76 161.561 349.564 161.562H322.035C321.839 161.562 321.651 161.491 321.512 161.365C321.373 161.238 321.295 161.067 321.295 160.888V152.331C321.295 152.243 321.314 152.156 321.352 152.074C321.389 151.992 321.444 151.918 321.512 151.856C321.581 151.794 321.663 151.745 321.752 151.711C321.842 151.678 321.938 151.661 322.035 151.662H349.564C349.76 151.662 349.947 151.732 350.086 151.858C350.224 151.983 350.303 152.153 350.304 152.331V160.888ZM350.304 138.745C350.303 138.923 350.224 139.093 350.086 139.218C349.947 139.344 349.76 139.414 349.564 139.414H322.035C321.938 139.415 321.842 139.398 321.752 139.364C321.663 139.331 321.581 139.282 321.512 139.22C321.444 139.157 321.389 139.083 321.352 139.002C321.314 138.92 321.295 138.833 321.295 138.745V130.188C321.295 130.009 321.373 129.838 321.512 129.711C321.651 129.585 321.839 129.514 322.035 129.514H349.564C349.76 129.515 349.948 129.586 350.086 129.713C350.224 129.839 350.303 130.01 350.304 130.188V138.745ZM350.304 116.596C350.304 116.685 350.285 116.772 350.248 116.854C350.211 116.936 350.156 117.01 350.088 117.073C350.019 117.136 349.937 117.185 349.848 117.219C349.758 117.253 349.662 117.271 349.564 117.271H322.035C321.843 117.269 321.659 117.2 321.523 117.076C321.387 116.953 321.309 116.786 321.306 116.611V108.07C321.306 107.981 321.324 107.893 321.361 107.811C321.398 107.729 321.452 107.654 321.521 107.591C321.59 107.529 321.672 107.479 321.762 107.445C321.852 107.412 321.949 107.395 322.046 107.395H349.575C349.772 107.395 349.96 107.466 350.099 107.593C350.237 107.719 350.315 107.891 350.315 108.07L350.304 116.596Z" fill="#F2F2F2"/>
<path d="M146.387 22.0986L137.883 27.0138L143.044 18.4522C141.583 17.3891 139.774 16.8003 137.904 16.7788H137.767C137.177 16.7869 136.586 16.7468 136.003 16.6589L133.121 18.3223L134.354 16.2743C132.31 15.6246 130.544 14.4003 129.312 12.7777L124.156 15.7748L127.411 10.3751C124.397 7.07331 120.331 5.05029 115.855 5.05029C110.49 5.05029 105.712 7.95745 102.627 12.488C101.715 13.8484 100.422 14.9631 98.8813 15.718C97.3406 16.4729 95.6075 16.8407 93.8596 16.7838H93.5746C87.6512 16.7838 82.8511 22.9078 82.8511 30.4555C82.8511 38.0031 87.6731 44.1321 93.5965 44.1321C94.8978 44.1259 96.1781 43.8329 97.3281 43.2779C99.3442 42.3838 101.549 41.9001 103.791 41.8604C106.033 41.8207 108.257 42.226 110.309 43.0482C112.045 43.7561 113.926 44.122 115.827 44.122C117.729 44.122 119.609 43.7561 121.345 43.0482C123.381 42.2432 125.584 41.847 127.803 41.8867C130.022 41.9263 132.206 42.4008 134.206 43.2779C135.346 43.8282 136.614 44.1211 137.904 44.1321C143.828 44.1321 148.628 38.0081 148.628 30.4555C148.663 27.5424 147.892 24.6683 146.387 22.0986Z" fill="#F2F2F2"/>
<path opacity="0.03" d="M130.359 42.1039C127.265 41.5668 124.066 41.8834 121.17 43.013C119.434 43.7192 117.555 44.0843 115.655 44.0843C113.754 44.0843 111.875 43.7192 110.139 43.013C108.086 42.1931 105.862 41.7891 103.621 41.8288C101.38 41.8685 99.1751 42.3509 97.1583 43.2428C96.0075 43.8006 94.7246 44.0938 93.4212 44.0969C88.1608 44.0969 83.7827 39.2666 82.873 32.8929C83.9246 32.193 84.8177 31.3144 85.5032 30.3054C88.5883 25.7748 93.3665 22.8677 98.731 22.8677C104.095 22.8677 108.813 25.7399 111.882 30.2255C112.801 31.5802 114.089 32.6952 115.62 33.462C117.152 34.2287 118.875 34.6212 120.622 34.6012H120.759C124.967 34.5762 128.595 37.6382 130.359 42.1039Z" fill="black"/>
<path d="M446.109 8.50669L441.857 10.9593L444.433 6.68846C443.703 6.1587 442.801 5.86523 441.868 5.85428H441.802C441.507 5.85956 441.211 5.83949 440.92 5.79434L439.484 6.62852L440.098 5.6295C439.081 5.30427 438.201 4.69628 437.583 3.8912L435.013 5.38973L436.657 2.69736C435.978 1.88476 435.109 1.22079 434.113 0.754077C433.116 0.287361 432.018 0.0297151 430.898 0C428.224 0 425.84 1.45358 424.322 3.71137C423.866 4.39063 423.219 4.94701 422.449 5.32355C421.678 5.70008 420.812 5.88325 419.939 5.85428H419.796C416.843 5.85428 414.448 8.90629 414.448 12.6726C414.448 16.4389 416.843 19.491 419.796 19.491C420.446 19.489 421.085 19.3433 421.659 19.0664C422.665 18.6211 423.764 18.3802 424.881 18.3604C425.999 18.3405 427.107 18.5422 428.131 18.9515C428.997 19.304 429.935 19.4862 430.884 19.4862C431.833 19.4862 432.771 19.304 433.638 18.9515C434.654 18.5507 435.753 18.3535 436.86 18.3733C437.967 18.3932 439.056 18.6295 440.054 19.0664C440.623 19.3373 441.254 19.4795 441.895 19.481C444.849 19.481 447.244 16.4289 447.244 12.6626C447.252 11.2127 446.862 9.78392 446.109 8.50669Z" fill="#F2F2F2"/>
<path opacity="0.03" d="M438.115 18.4821C436.57 18.2174 434.974 18.3755 433.528 18.9366C432.666 19.2863 431.732 19.4667 430.788 19.4661C429.844 19.4617 428.911 19.278 428.049 18.9266C427.024 18.5173 425.915 18.3156 424.796 18.3354C423.678 18.3552 422.578 18.5962 421.572 19.0415C420.998 19.3191 420.358 19.4648 419.709 19.4661C417.084 19.4661 414.903 17.0585 414.448 13.8766C414.973 13.5277 415.42 13.0902 415.763 12.5878C417.298 10.33 419.681 8.87646 422.339 8.87646C424.996 8.87646 427.369 10.3101 428.914 12.5479C429.375 13.2268 430.021 13.785 430.79 14.1677C431.558 14.5504 432.423 14.7444 433.298 14.7307H433.369C435.424 14.7307 437.232 16.2592 438.115 18.4821Z" fill="black"/>
<path d="M339.635 53.4279L334.649 56.3101L337.674 51.315C336.819 50.6852 335.759 50.3336 334.66 50.3159H334.578C334.231 50.3204 333.884 50.297 333.542 50.246L331.854 51.245L332.578 50.0412C331.38 49.6609 330.345 48.946 329.619 47.9982L326.594 49.7465L328.506 46.5796C327.702 45.6323 326.677 44.8602 325.504 44.3194C324.332 43.7785 323.042 43.4824 321.728 43.4526C318.583 43.4526 315.777 45.161 313.969 47.8184C313.432 48.6102 312.675 49.2584 311.774 49.6971C310.873 50.1358 309.861 50.3493 308.84 50.3159H308.67C305.196 50.3159 302.385 53.9074 302.385 58.3081C302.385 62.7088 305.196 66.3253 308.67 66.3253C309.435 66.3241 310.187 66.1526 310.862 65.8258C312.044 65.3021 313.337 65.0189 314.652 64.9956C315.966 64.9723 317.27 65.2095 318.473 65.6909C319.492 66.1042 320.594 66.3178 321.709 66.3178C322.824 66.3178 323.926 66.1042 324.945 65.6909C326.14 65.2192 327.432 64.9871 328.734 65.0104C330.035 65.0336 331.316 65.3117 332.49 65.8258C333.166 66.1503 333.918 66.3217 334.682 66.3253C338.156 66.3253 340.972 62.7388 340.972 58.3081C340.981 56.6051 340.522 54.9272 339.635 53.4279Z" fill="#F2F2F2"/>
<path opacity="0.03" d="M330.238 65.1613C328.422 64.848 326.545 65.0341 324.846 65.6958C323.828 66.1091 322.725 66.3227 321.61 66.3227C320.496 66.3227 319.393 66.1091 318.375 65.6958C317.171 65.2144 315.867 64.9772 314.553 65.0005C313.239 65.0238 311.946 65.307 310.764 65.8307C310.088 66.1569 309.336 66.3284 308.572 66.3302C305.487 66.3302 302.917 63.498 302.385 59.7616C302.999 59.357 303.522 58.8482 303.925 58.2631C305.733 55.6057 308.539 53.9023 311.684 53.9023C314.829 53.9023 317.602 55.5857 319.41 58.2131C319.948 59.0082 320.703 59.6626 321.601 60.1126C322.499 60.5626 323.509 60.7927 324.534 60.7806H324.594C327.071 60.7457 329.202 62.5439 330.238 65.1613Z" fill="black"/>
<path d="M519.054 284.322C519.054 285.181 519.054 286.04 518.993 286.89C518.853 290.195 518.417 293.484 517.689 296.725C514.089 312.764 503.694 325.232 490.637 328.913C488.039 329.651 485.335 330.026 482.614 330.027C462.488 330.027 446.175 309.547 446.175 284.322C446.175 259.097 462.488 238.617 482.614 238.617C501.492 238.617 517.021 256.629 518.867 279.702C518.993 281.22 519.054 282.764 519.054 284.322Z" fill="#5E5D5B"/>
<path opacity="0.1" d="M518.994 286.894C518.854 290.2 518.417 293.489 517.689 296.73C514.089 312.769 503.695 325.237 490.637 328.918C480.527 324.677 473.025 308.783 473.025 289.822C473.025 267.613 483.327 249.611 496.04 249.611C506.708 249.611 515.684 262.308 518.287 279.537C518.648 281.899 518.884 284.367 518.994 286.894Z" fill="black"/>
<path d="M336.036 183.171C336.036 183.171 434.668 164.689 486.724 181.672C486.724 181.672 494.396 185.169 486.724 191.163C486.724 191.163 493.979 198.156 481.31 200.654L430.98 203.476L336.036 194.66V183.171Z" fill="#D55F0D"/>
<path opacity="0.1" d="M353.296 185.494C353.296 185.494 437.742 169.669 482.313 184.21C482.313 184.21 488.889 187.207 482.313 192.337C482.313 192.337 488.522 198.331 477.677 200.464L434.586 202.877L353.296 195.339V185.494Z" fill="black"/>
<path d="M449.463 213.142L442.888 201.153C442.888 201.153 445.77 189.025 422.339 185.459C421.04 180.169 415.155 176.178 408.092 176.178C401.199 176.178 395.434 179.974 393.944 185.069C390.579 185.334 386.996 185.693 383.16 186.168L377.801 212.362L377.132 211.144C377.132 211.144 380.535 196.818 349.866 194.725C351.538 192.877 352.459 190.561 352.474 188.166C352.474 181.817 345.97 176.677 337.953 176.677C329.937 176.677 323.433 181.817 323.433 188.166C323.454 190.774 324.54 193.282 326.479 195.199C323.612 195.449 320.587 195.769 317.405 196.158L311.377 225.629L339.323 229.126L383.708 223.132L379.779 215.964L405.078 219.131L449.463 213.142Z" fill="black"/>
<path opacity="0.2" d="M449.463 213.142L442.888 201.153C442.888 201.153 445.77 189.025 422.339 185.459C421.04 180.169 415.155 176.178 408.092 176.178C401.199 176.178 395.434 179.974 393.944 185.069C390.579 185.334 386.996 185.693 383.16 186.168L377.801 212.362L377.132 211.144C377.132 211.144 380.535 196.818 349.866 194.725C351.538 192.877 352.459 190.561 352.474 188.166C352.474 181.817 345.97 176.677 337.953 176.677C329.937 176.677 323.433 181.817 323.433 188.166C323.454 190.774 324.54 193.282 326.479 195.199C323.612 195.449 320.587 195.769 317.405 196.158L311.377 225.629L339.323 229.126L383.708 223.132L379.779 215.964L405.078 219.131L449.463 213.142Z" fill="#A59A9A" fill-opacity="0.8"/>
<path d="M355.203 186.608C355.203 186.608 350.819 164.19 371.094 163.69C391.368 163.191 384.793 196.158 384.793 196.158C384.793 196.158 400.136 199.156 401.232 204.65C402.327 210.145 348.08 211.643 348.08 211.643L355.203 186.608Z" fill="#9E9E9E"/>
<path d="M319.597 305.052C319.597 331.526 298.007 353.005 271.377 353.005C244.746 353.005 223.156 331.526 223.156 305.052C223.156 278.578 245.014 252.853 271.651 252.853C298.287 252.853 319.597 278.568 319.597 305.052Z" fill="#5E5D5B"/>
<path opacity="0.1" d="M271.377 347.505C292.561 347.505 309.734 329.393 309.734 307.05C309.734 284.707 292.561 266.594 271.377 266.594C250.193 266.594 233.02 284.707 233.02 307.05C233.02 329.393 250.193 347.505 271.377 347.505Z" fill="black"/>
<path d="M59.3165 348.504C85.9479 348.504 107.537 327.035 107.537 300.551C107.537 274.068 85.9479 252.598 59.3165 252.598C32.6852 252.598 11.0962 274.068 11.0962 300.551C11.0962 327.035 32.6852 348.504 59.3165 348.504Z" fill="black" fill-opacity="0.63"/>
<path d="M141.51 186.168C141.51 186.168 119.044 187.167 120.14 198.156C121.236 209.145 139.318 201.153 139.318 201.153L141.51 186.168Z" fill="#FD6601"/>
<path d="M328.43 204.475L337.679 148.205C337.679 148.205 339.871 141.212 310.281 141.212C310.281 141.212 215.485 135.717 191.374 144.709C191.374 144.709 163.428 154.199 124.523 203.151C124.523 203.151 324.594 207.472 328.43 204.475Z" fill="#D55F0D"/>
<path d="M325.077 145.708L308.09 207.147L297.438 206.913L247.025 205.794L134.59 203.296C134.277 198.441 187.523 148.205 187.523 148.205L325.077 145.708Z" fill="#C2D5E3"/>
<path opacity="0.2" d="M247.042 205.794L251.633 189.61C251.633 189.61 247.25 167.187 267.524 166.687C287.799 166.188 281.223 199.156 281.223 199.156C281.223 199.156 295.196 201.888 297.421 206.913L247.042 205.794Z" fill="black"/>
<path d="M519.328 280.825C516.04 251.854 495.492 245.61 495.492 245.61C475.765 244.611 462.614 313.044 462.614 313.044L310.829 325.532C310.829 325.532 316.035 267.339 279.322 257.848C242.609 248.357 233.019 316.541 231.376 326.031C229.732 335.522 10.0002 325.032 3.9727 321.036C-2.05484 317.04 0.13699 278.578 1.78087 275.581C3.42474 272.584 7.80841 259.097 7.80841 259.097C7.80841 255.88 9.49612 251.814 10.8989 248.992C11.8852 246.994 12.74 245.61 12.74 245.61C17.5018 220.994 42.2257 215.035 43.886 214.64H43.9737C50.5492 208.646 111.373 204.65 111.373 204.65L134.387 200.654L321.498 204.006L329.46 204.15L424.586 199.979L488.916 197.157C503.711 197.157 511.382 231.124 511.382 231.124C525.081 261.095 519.328 280.825 519.328 280.825Z" fill="#D55F0D"/>
<path opacity="0.1" d="M210.853 251.407C225.306 246.106 234.07 235.121 230.429 226.872C226.788 218.624 212.12 216.235 197.667 221.537C183.214 226.838 174.449 237.823 178.09 246.072C181.731 254.32 196.399 256.709 210.853 251.407Z" fill="black"/>
<path d="M209.757 249.407C224.21 244.106 232.975 233.121 229.334 224.872C225.693 216.624 211.024 214.235 196.571 219.537C182.118 224.838 173.354 235.823 176.995 244.072C180.636 252.32 195.304 254.709 209.757 249.407Z" fill="#F2F2F2"/>
<path opacity="0.1" d="M44.9817 215.659C44.7023 221.154 42.0008 228.087 37.1405 234.765C29.3211 245.515 18.5975 251.844 11.9946 249.991C12.981 247.993 13.8358 246.609 13.8358 246.609C18.5975 221.993 43.3214 216.034 44.9817 215.659Z" fill="black"/>
<path d="M43.3382 214.66C43.0587 220.155 40.3573 227.088 35.4969 233.766C27.6775 244.516 16.954 250.845 10.3511 248.992C11.3374 246.994 12.1922 245.61 12.1922 245.61C16.954 220.994 41.6779 215.035 43.3382 214.66Z" fill="#F2F2F2"/>
<path d="M120.14 229.621H76.851L74.6592 224.126H127.263L120.14 229.621Z" fill="#FD6601"/>
<path d="M110.277 270.081H39.042V289.063H110.277V270.081Z" fill="#5E5D5B"/>
<path opacity="0.1" d="M186.991 307.544C192.438 307.544 196.854 303.519 196.854 298.553C196.854 293.588 192.438 289.562 186.991 289.562C181.543 289.562 177.127 293.588 177.127 298.553C177.127 303.519 181.543 307.544 186.991 307.544Z" fill="black"/>
<path d="M185.895 306.046C191.342 306.046 195.758 302.02 195.758 297.055C195.758 292.089 191.342 288.063 185.895 288.063C180.448 288.063 176.032 292.089 176.032 297.055C176.032 302.02 180.448 306.046 185.895 306.046Z" fill="#F2F2F2"/>
<path opacity="0.1" d="M7.80858 301.051C10.5322 301.051 12.7402 296.802 12.7402 291.56C12.7402 286.318 10.5322 282.069 7.80858 282.069C5.08492 282.069 2.87695 286.318 2.87695 291.56C2.87695 296.802 5.08492 301.051 7.80858 301.051Z" fill="black"/>
<path d="M6.16454 300.551C8.8882 300.551 11.0962 296.302 11.0962 291.061C11.0962 285.819 8.8882 281.57 6.16454 281.57C3.44087 281.57 1.23291 285.819 1.23291 291.061C1.23291 296.302 3.44087 300.551 6.16454 300.551Z" fill="#F2F2F2"/>
<path d="M440.695 251.105C434.668 268.088 434.12 294.562 434.12 294.562L431.928 301.555L325.076 312.544C325.076 312.544 325.624 263.592 327.268 240.615C328.424 224.406 324.134 210.684 321.498 204.006L329.46 204.15L424.585 199.979C440.476 210.135 446.104 235.854 440.695 251.105Z" fill="#FD6601"/>
<path d="M416.333 220.484C415.959 220.507 415.594 220.601 415.262 220.76C414.93 220.918 414.638 221.138 414.405 221.406C414.172 221.674 414.003 221.983 413.908 222.314C413.814 222.644 413.796 222.989 413.856 223.327C413.908 223.609 414.035 223.875 414.227 224.103C414.418 224.33 414.667 224.511 414.952 224.63C416.722 225.435 428.503 223.631 432.969 222.912C433.63 222.814 434.238 222.52 434.696 222.074C435.154 221.629 435.437 221.057 435.501 220.449C435.556 219.74 435.271 219.136 434.131 219.136L416.333 220.484Z" fill="#F2F2F2"/>
<path d="M321.241 202.152C321.241 202.152 323.981 213.142 337.132 209.645L341.515 194.16L332.748 189.665L321.241 202.152Z" fill="#FD6601"/>
<path d="M337.345 179.839C343.373 176.582 352.935 173.735 362.392 180.573C364.361 181.99 365.75 183.97 366.335 186.193C366.92 188.416 366.668 190.754 365.62 192.831C362.524 198.94 355.176 205.569 338.019 197.632C336.335 196.853 334.898 195.694 333.844 194.265L333.756 194.145C332.926 193.001 332.359 191.715 332.09 190.365C331.821 189.015 331.856 187.629 332.191 186.292C332.527 184.954 333.156 183.693 334.042 182.584C334.928 181.475 336.052 180.541 337.345 179.839Z" fill="#FD6601"/>
<path d="M271.651 314.787C277.703 314.787 282.61 310.314 282.61 304.797C282.61 299.279 277.703 294.807 271.651 294.807C265.598 294.807 260.691 299.279 260.691 304.797C260.691 310.314 265.598 314.787 271.651 314.787Z" fill="black" fill-opacity="0.5"/>
<path d="M497.957 296.805C501.286 296.805 503.985 292.332 503.985 286.815C503.985 281.297 501.286 276.825 497.957 276.825C494.628 276.825 491.93 281.297 491.93 286.815C491.93 292.332 494.628 296.805 497.957 296.805Z" fill="black" fill-opacity="0.5"/>
<path d="M271.924 274.077H270.828C267.197 274.077 264.253 276.761 264.253 280.071V285.566C264.253 288.876 267.197 291.56 270.828 291.56H271.924C275.556 291.56 278.5 288.876 278.5 285.566V280.071C278.5 276.761 275.556 274.077 271.924 274.077Z" fill="black" fill-opacity="0.5"/>
<path d="M497.957 254.846C498.461 254.846 498.96 254.936 499.425 255.112C499.891 255.288 500.313 255.545 500.67 255.87C501.026 256.195 501.308 256.58 501.501 257.004C501.694 257.428 501.793 257.883 501.793 258.342V266.334C501.793 267.924 501.1 269.449 499.867 270.573C498.634 271.697 496.961 272.329 495.218 272.329C494.2 272.329 493.225 271.96 492.505 271.305C491.786 270.649 491.382 269.759 491.382 268.832V260.84C491.382 259.25 492.075 257.725 493.308 256.601C494.541 255.477 496.213 254.846 497.957 254.846Z" fill="black" fill-opacity="0.5"/>
<path d="M497.957 318.789C496.213 318.789 494.541 318.157 493.308 317.033C492.075 315.909 491.382 314.384 491.382 312.794V307.3C491.382 305.71 492.075 304.185 493.308 303.061C494.541 301.937 496.213 301.306 497.957 301.306C501.574 301.306 501.245 304.003 501.245 307.3V312.794C501.24 316.091 501.585 318.789 497.957 318.789Z" fill="black" fill-opacity="0.5"/>
<path d="M481.518 277.823C483.262 277.823 484.935 278.455 486.168 279.579C487.401 280.703 488.094 282.228 488.094 283.817V291.31C488.094 292.37 487.632 293.386 486.81 294.136C485.988 294.885 484.873 295.306 483.71 295.306C481.966 295.306 480.294 294.675 479.061 293.551C477.828 292.426 477.135 290.902 477.135 289.312V281.819C477.135 280.76 477.597 279.743 478.419 278.994C479.241 278.244 480.356 277.823 481.518 277.823Z" fill="black" fill-opacity="0.5"/>
<path d="M519.054 284.322C519.054 285.181 519.054 286.041 518.994 286.89C518.853 290.195 518.417 293.485 517.689 296.725C517.327 296.781 516.961 296.809 516.594 296.81C514.85 296.81 513.177 296.179 511.944 295.054C510.711 293.93 510.018 292.406 510.018 290.816V285.321C510.018 283.732 510.711 282.207 511.944 281.083C513.177 279.959 514.85 279.327 516.594 279.327C517.167 279.326 517.739 279.395 518.292 279.532C518.489 279.582 518.687 279.637 518.873 279.702C518.994 281.22 519.054 282.764 519.054 284.322Z" fill="black" fill-opacity="0.5"/>
<path d="M299.596 295.307H298.5C294.869 295.307 291.925 297.99 291.925 301.301V306.795C291.925 310.106 294.869 312.789 298.5 312.789H299.596C303.228 312.789 306.172 310.106 306.172 306.795V301.301C306.172 297.99 303.228 295.307 299.596 295.307Z" fill="black" fill-opacity="0.5"/>
<path d="M245.897 295.307H244.801C241.169 295.307 238.225 297.99 238.225 301.301V306.795C238.225 310.106 241.169 312.789 244.801 312.789H245.897C249.528 312.789 252.472 310.106 252.472 306.795V301.301C252.472 297.99 249.528 295.307 245.897 295.307Z" fill="black" fill-opacity="0.5"/>
<path d="M272.198 321.281H271.102C267.471 321.281 264.527 323.965 264.527 327.275V332.77C264.527 336.08 267.471 338.764 271.102 338.764H272.198C275.83 338.764 278.774 336.08 278.774 332.77V327.275C278.774 323.965 275.83 321.281 272.198 321.281Z" fill="black" fill-opacity="0.5"/>
<path d="M463.031 102.904C463.027 103.857 462.842 104.802 462.483 105.697C461.858 107.286 460.715 108.664 459.208 109.646C457.701 110.628 455.9 111.167 454.048 111.191C452.196 111.215 450.379 110.723 448.842 109.78C447.305 108.837 446.12 107.489 445.446 105.916C445.033 104.962 444.821 103.945 444.822 102.919C444.822 100.72 445.78 98.6111 447.486 97.0561C449.192 95.5011 451.505 94.6274 453.918 94.6274C456.33 94.6274 458.644 95.5011 460.35 97.0561C462.056 98.6111 463.014 100.72 463.014 102.919L463.031 102.904Z" fill="#FF6584"/>
<path d="M446.668 104.973C446.089 104.02 445.72 102.974 445.585 101.892C445.449 100.81 445.548 99.7141 445.877 98.6672C446.205 97.6204 446.757 96.6427 447.5 95.7902C448.244 94.9377 449.164 94.2269 450.208 93.6986C451.223 93.1746 452.339 92.8353 453.496 92.6996C452.243 92.659 450.994 92.8551 449.827 93.2756C448.661 93.6962 447.603 94.3319 446.719 95.143C445.836 95.9542 445.145 96.9231 444.692 97.989C444.239 99.0549 444.032 100.195 444.085 101.337C444.138 102.479 444.45 103.599 445 104.626C445.551 105.653 446.328 106.566 447.284 107.306C448.24 108.046 449.353 108.598 450.554 108.927C451.755 109.256 453.018 109.355 454.263 109.218C452.704 109.164 451.186 108.745 449.856 108.002C448.526 107.258 447.428 106.215 446.668 104.973Z" fill="#FF6584"/>
<path d="M466.932 114.453H442.564V149.104H466.932V114.453Z" fill="#FF6584"/>
<path opacity="0.1" d="M467.48 113.454H443.112V148.105H467.48V113.454Z" fill="black"/>
<path d="M404.048 240.17C404.048 240.17 401.451 246.664 395.281 247.573C389.111 248.482 385.549 249.931 385.549 249.931L400.169 258.517L407.966 257.628C407.966 257.628 408.936 248.447 412.185 246.374C415.435 244.301 404.048 240.17 404.048 240.17Z" fill="#FBBEBE"/>
<path d="M509.651 240.17C509.651 240.17 512.248 246.664 518.418 247.573C524.588 248.482 528.161 249.946 528.161 249.946L513.541 258.532L505.744 257.643C505.744 257.643 504.774 248.462 501.525 246.389C498.275 244.316 509.651 240.17 509.651 240.17Z" fill="#FBBEBE"/>
<path d="M438.503 182.716C438.503 182.716 434.602 184.495 433.303 188.046C433.303 188.046 426.18 190.119 422.256 195.749C422.256 195.749 417.385 200.484 416.733 202.857C416.081 205.229 408.612 219.46 408.612 219.46C408.612 219.46 401.144 241.669 397.242 244.041C397.242 244.041 409.588 241.669 411.862 252.923C411.862 252.923 414.788 252.923 418.037 242.558C421.287 232.193 429.079 219.46 429.079 219.46C429.079 219.46 431.681 210.574 433.955 209.096C436.229 207.617 439.802 200.804 443.052 202.577C446.301 204.35 467.743 202.282 467.743 202.282C467.743 202.282 480.411 207.612 480.735 211.169C481.058 214.725 483.337 215.015 483.661 217.977C483.984 220.939 496.006 244.336 496.006 244.336C496.006 244.336 498.28 250.83 498.927 252.328C498.927 252.328 506.078 236.634 515.497 245.515C515.497 245.515 515.174 239.591 512.248 236.024C509.322 232.458 496.653 204.63 496.653 204.63C496.653 204.63 495.354 200.484 494.056 199.3C492.757 198.116 482.685 188.641 479.118 188.641C479.118 188.641 477.167 184.195 474.893 183.605L438.503 182.716Z" fill="#696880"/>
<path d="M409.264 255.57C406.726 256.499 403.967 256.813 401.256 256.48C398.545 256.147 395.974 255.18 393.796 253.672C391.679 252.191 389.36 250.967 386.897 250.031C383.456 248.762 379.329 247.818 378.075 249.946C375.801 253.792 405.692 263.273 405.692 263.273C405.692 263.273 409.588 261.195 409.264 255.57Z" fill="#696880"/>
<path d="M504.451 255.57C506.989 256.499 509.749 256.813 512.46 256.48C515.171 256.147 517.741 255.18 519.92 253.672C522.037 252.191 524.356 250.967 526.818 250.031C530.26 248.762 534.386 247.818 535.641 249.946C537.915 253.792 508.023 263.273 508.023 263.273C508.023 263.273 504.127 261.195 504.451 255.57Z" fill="#696880"/>
<path d="M449.123 134.004C448.997 135.033 448.63 136.147 447.666 136.696C446.877 137.146 445.879 137.106 444.97 137.281C444.014 137.497 443.127 137.915 442.382 138.502C441.636 139.088 441.053 139.827 440.679 140.657C439.952 142.334 439.81 144.175 440.274 145.927C440.486 146.788 440.763 147.634 441.101 148.46C442.06 150.917 443.211 153.35 444.986 155.398C446.506 157.02 448.215 158.488 450.082 159.774C451.238 160.633 452.433 161.512 453.858 161.917C454.825 162.15 455.821 162.269 456.822 162.271C458.055 162.326 459.365 162.361 460.433 161.802C462.077 160.938 462.57 159.025 463.458 157.496C464.22 156.192 465.348 155.093 466.055 153.765C466.556 152.722 466.923 151.631 467.151 150.513L468.669 144.364C469.217 142.136 469.721 139.618 468.34 137.705C468.244 137.547 468.104 137.415 467.935 137.321C467.673 137.224 467.386 137.196 467.107 137.241C465.36 137.348 463.617 136.985 462.093 136.197C461.852 136.088 461.638 135.935 461.463 135.747C461.239 135.431 461.106 135.069 461.074 134.693C460.926 133.93 460.691 133.184 460.373 132.465C460.282 132.209 460.118 131.979 459.896 131.801C459.665 131.668 459.402 131.587 459.129 131.566C456.783 131.218 454.418 130.991 452.044 130.887C451.26 130.857 450.088 130.572 449.556 131.197C449.025 131.821 449.211 133.255 449.123 134.004Z" fill="#FBBEBE"/>
<path opacity="0.1" d="M449.123 134.004C448.997 135.033 448.63 136.147 447.666 136.696C446.877 137.146 445.879 137.106 444.97 137.281C444.014 137.497 443.127 137.915 442.382 138.502C441.636 139.088 441.053 139.827 440.679 140.657C439.952 142.334 439.81 144.175 440.274 145.927C440.486 146.788 440.763 147.634 441.101 148.46C442.06 150.917 443.211 153.35 444.986 155.398C446.506 157.02 448.215 158.488 450.082 159.774C451.238 160.633 452.433 161.512 453.858 161.917C454.825 162.15 455.821 162.269 456.822 162.271C458.055 162.326 459.365 162.361 460.433 161.802C462.077 160.938 462.57 159.025 463.458 157.496C464.22 156.192 465.348 155.093 466.055 153.765C466.556 152.722 466.923 151.631 467.151 150.513L468.669 144.364C469.217 142.136 469.721 139.618 468.34 137.705C468.244 137.547 468.104 137.415 467.935 137.321C467.673 137.224 467.386 137.196 467.107 137.241C465.36 137.348 463.617 136.985 462.093 136.197C461.852 136.088 461.638 135.935 461.463 135.747C461.239 135.431 461.106 135.069 461.074 134.693C460.926 133.93 460.691 133.184 460.373 132.465C460.282 132.209 460.118 131.979 459.896 131.801C459.665 131.668 459.402 131.587 459.129 131.566C456.783 131.218 454.418 130.991 452.044 130.887C451.26 130.857 450.088 130.572 449.556 131.197C449.025 131.821 449.211 133.255 449.123 134.004Z" fill="black"/>
<path d="M444.723 137.54C443.452 137.196 442.136 137.006 440.811 136.976C437.676 136.906 434.328 137.895 432.515 140.228C431.287 141.91 430.836 143.965 431.26 145.947C431.698 147.915 432.679 149.749 434.109 151.277C434.936 152.079 435.671 152.956 436.301 153.895C437.167 155.393 437.189 157.181 437.397 158.89C437.945 162.941 439.841 166.757 440.597 170.783C441.353 174.809 440.696 179.484 437.205 182.052C436.619 182.482 435.912 182.931 435.863 183.615C435.78 184.709 437.342 185.179 438.542 185.279C442.131 185.594 445.814 185.898 449.299 185.054C450.745 184.704 452.131 184.16 453.6 183.91C457.332 183.276 461.08 184.575 464.806 185.204C467.507 185.608 470.239 185.81 472.976 185.808C473.615 185.86 474.258 185.783 474.861 185.584C475.158 185.477 475.411 185.287 475.583 185.041C475.754 184.795 475.835 184.506 475.814 184.215C475.695 183.837 475.473 183.494 475.168 183.216C473.283 181.088 472.707 178.271 472.192 175.578L470.494 166.512C469.568 161.677 468.707 156.427 471.217 152.081C473.025 148.959 476.346 146.761 478.253 143.689C478.927 142.76 479.232 141.647 479.118 140.538C478.834 138.994 477.305 137.89 475.738 137.241C472.726 136.013 469.309 135.901 466.209 136.926C466.263 139.089 465.661 141.277 465.266 143.42L464.603 146.916C464.267 148.977 463.772 151.013 463.124 153.01C462.882 153.808 462.479 154.557 461.934 155.218C461.349 155.811 460.634 156.286 459.836 156.612C458.105 157.383 456.201 157.778 454.274 157.766C453.44 157.781 452.61 157.666 451.819 157.426C450.515 156.996 449.457 156.112 448.438 155.253C448.103 154.994 447.803 154.698 447.545 154.374C447.276 153.957 447.072 153.508 446.937 153.04C446.493 151.819 446.145 150.57 445.896 149.304C445.726 148.335 445.677 147.351 445.6 146.372C445.359 143.535 445.364 140.323 444.723 137.54Z" fill="#F2F2F2"/>
<path d="M441.424 194.859C441.424 194.859 440.126 210.554 448.246 213.221C456.367 215.889 449.222 200.189 449.222 200.189L446.625 195.449L441.424 194.859Z" fill="#FBBEBE"/>
<path d="M469.042 194.859C469.042 194.859 470.34 210.554 462.22 213.221C454.099 215.889 461.244 200.189 461.244 200.189L463.842 195.449L469.042 194.859Z" fill="#FBBEBE"/>
<path opacity="0.1" d="M434.279 142.441L431.682 146.292C431.682 146.292 433.956 159.619 434.279 161.987C434.557 163.692 434.992 165.373 435.578 167.012C435.578 167.012 435.901 174.12 435.901 176.782C435.901 179.445 437.545 183.89 437.545 183.89C437.773 186.408 438.324 188.893 439.189 191.293C440.487 194.555 441.791 198.401 441.791 198.401C441.791 198.401 443.435 194.255 449.912 200.474C450.636 199.802 451.042 198.898 451.042 197.957C451.042 197.015 450.636 196.111 449.912 195.439C449.912 195.439 447.962 187.447 447.962 183.301C447.962 179.155 444.389 159.324 444.389 159.324C444.389 159.324 442.076 136.811 434.279 142.441Z" fill="black"/>
<path d="M433.638 142.146L431.041 145.993C431.041 145.993 433.315 159.319 433.638 161.692C433.919 163.399 434.355 165.081 434.942 166.722C434.942 166.722 435.282 173.83 435.282 176.503C435.282 179.175 436.926 183.611 436.926 183.611C437.155 186.128 437.707 188.613 438.569 191.013C439.868 194.27 441.167 198.122 441.167 198.122C441.167 198.122 442.811 193.976 449.288 200.195C450.013 199.523 450.42 198.619 450.42 197.677C450.42 196.735 450.013 195.83 449.288 195.159C449.288 195.159 447.337 187.167 447.337 183.016C447.337 178.865 443.764 159.04 443.764 159.04C443.764 159.04 441.424 136.542 433.638 142.146Z" fill="#F2F2F2"/>
<path opacity="0.1" d="M476.51 140.068L478.154 141.831C478.154 141.831 480.072 151.917 475.847 164.649L474.548 176.203C474.548 176.203 472.274 185.973 471.946 188.346C471.617 190.719 471.622 191.008 470.976 191.897C470.777 192.105 470.667 192.371 470.667 192.647C470.667 192.922 470.777 193.188 470.976 193.396L469.025 199.915C469.025 199.915 466.099 196.658 460.258 200.804C460.258 200.804 458.614 198.431 459.934 196.358C461.255 194.285 461.233 193.396 460.91 192.807C460.586 192.217 462.208 189.25 462.208 188.661C462.208 188.071 464.482 174.445 464.482 174.445C464.482 174.445 465.458 161.118 466.433 156.677C467.03 153.945 467.014 147.85 466.915 143.565C466.811 139.104 472.735 136.681 476.231 139.823C476.324 139.888 476.417 139.978 476.51 140.068Z" fill="black"/>
<path d="M477.474 139.479L479.118 141.242C479.118 141.242 481.031 151.322 476.811 164.06L475.513 175.608C475.513 175.608 473.239 185.384 472.91 187.751C472.581 190.119 472.587 190.419 471.935 191.303C471.739 191.512 471.631 191.777 471.631 192.052C471.631 192.327 471.739 192.593 471.935 192.801L469.989 199.295C469.989 199.295 467.063 196.038 461.222 200.184C461.222 200.184 459.578 197.817 460.899 195.744C462.219 193.671 462.197 192.781 461.869 192.187C461.54 191.593 463.173 188.636 463.173 188.041C463.173 187.447 465.447 173.825 465.447 173.825C465.447 173.825 466.422 160.498 467.392 156.057C468.362 151.617 467.721 138.29 467.721 138.29C467.721 138.29 472.937 135.043 477.474 139.479Z" fill="#F2F2F2"/>
<path d="M455.721 135.333C462.899 135.333 468.718 130.028 468.718 123.484C468.718 116.94 462.899 111.636 455.721 111.636C448.542 111.636 442.723 116.94 442.723 123.484C442.723 130.028 448.542 135.333 455.721 135.333Z" fill="#FBBEBE"/>
<path opacity="0.1" d="M462.499 105.697C461.874 107.287 460.732 108.665 459.224 109.647C457.717 110.629 455.917 111.167 454.065 111.191C452.212 111.215 450.396 110.723 448.859 109.78C447.322 108.838 446.137 107.49 445.463 105.917C450.532 104.059 455.721 105.717 455.721 105.717C458.296 104.883 460.554 104.963 462.499 105.697Z" fill="black"/>
<path d="M455.721 106.311C455.721 106.311 430.706 98.3187 436.876 137.111C436.876 137.111 442.4 140.368 446.625 138.295C446.625 138.295 443.698 111.321 455.069 112.53C466.439 113.739 464.493 137.7 464.493 137.7C464.493 137.7 470.992 139.479 472.937 136.202C474.883 132.925 472.291 100.976 455.721 106.311Z" fill="#FF6584"/>
<path opacity="0.1" d="M455.068 110.752C447.265 109.938 446.197 122.371 446.301 130.258C446.4 122.421 447.846 111.776 455.068 112.53C463.189 113.374 464.515 125.842 464.614 132.905C464.701 126.427 463.923 111.676 455.068 110.752Z" fill="black"/>
<path opacity="0.1" d="M436.876 135.333C436.312 131.928 435.988 128.495 435.906 125.053C435.879 129.083 436.204 133.108 436.876 137.091C436.876 137.091 442.4 140.348 446.624 138.275C446.624 138.275 446.553 137.635 446.477 136.562C442.274 138.54 436.876 135.333 436.876 135.333Z" fill="black"/>
<path opacity="0.1" d="M472.938 134.443C471.124 137.475 465.365 136.147 464.581 135.942C464.543 137.041 464.494 137.695 464.494 137.695C464.494 137.695 470.992 139.473 472.938 136.197C473.343 135.522 473.551 133.629 473.485 131.097C473.431 132.75 473.239 133.939 472.938 134.443Z" fill="black"/>
<path d="M539.553 326.126C541.054 323.594 539.35 320.487 537.394 318.229C535.438 315.971 533.049 313.619 533.098 310.736C533.175 306.601 537.991 304.158 541.865 301.965C544.723 300.336 547.358 298.405 549.717 296.211C550.703 295.365 551.519 294.37 552.129 293.269C552.923 291.65 552.901 289.807 552.852 288.034C552.687 282.129 552.368 276.23 551.893 270.336" stroke="#D55F0D" stroke-width="4" stroke-miterlimit="10"/>
<path d="M559.181 270.016C559.126 268.935 558.774 267.883 558.156 266.959C557.539 266.034 556.675 265.266 555.646 264.726L554.063 267.584L554.112 264.122C553.354 263.92 552.566 263.834 551.778 263.867C550.379 263.927 549.031 264.363 547.905 265.121C546.778 265.879 545.924 266.924 545.449 268.124C544.974 269.325 544.9 270.627 545.237 271.866C545.573 273.105 546.305 274.225 547.34 275.084C548.375 275.944 549.666 276.504 551.051 276.695C552.435 276.886 553.85 276.698 555.117 276.156C556.385 275.613 557.447 274.74 558.17 273.648C558.894 272.555 559.245 271.291 559.181 270.016Z" fill="black"/>
<path d="M546.556 313.698C545.842 314.961 544.691 315.974 543.281 316.58C541.871 317.186 540.282 317.35 538.759 317.049C537.236 316.747 535.865 315.996 534.858 314.911C533.852 313.827 533.265 312.47 533.191 311.051C533.14 310.157 533.297 309.263 533.651 308.429C534.169 307.206 535.082 306.155 536.27 305.417C537.458 304.678 538.865 304.287 540.302 304.295C541.74 304.302 543.142 304.708 544.32 305.459C545.499 306.21 546.399 307.27 546.901 308.498L542.479 311.78L547.339 310.751C547.341 311.777 547.072 312.788 546.556 313.698Z" fill="black"/>
<path d="M543.06 301.166C542.13 301.206 541.202 301.078 540.327 300.79C539.452 300.503 538.648 300.061 537.961 299.49C537.273 298.919 536.716 298.23 536.32 297.462C535.925 296.695 535.7 295.864 535.657 295.017C535.603 294.007 535.813 293.001 536.27 292.08C536.696 291.218 537.324 290.452 538.108 289.834C538.893 289.216 539.816 288.762 540.813 288.503L540.78 291.166L542.38 288.269C544.255 288.19 546.088 288.793 547.476 289.947C548.863 291.1 549.691 292.708 549.777 294.418C549.82 295.162 549.718 295.908 549.476 296.62C549.048 297.887 548.203 299.003 547.055 299.816C545.907 300.629 544.512 301.101 543.06 301.166Z" fill="black"/>
<path d="M560.249 290.741C559.32 290.781 558.392 290.653 557.517 290.365C556.642 290.078 555.837 289.636 555.15 289.065C554.462 288.494 553.905 287.805 553.51 287.037C553.115 286.27 552.889 285.439 552.846 284.592C552.787 283.538 553.016 282.487 553.515 281.535C553.929 280.734 554.52 280.019 555.25 279.436C555.981 278.852 556.835 278.412 557.761 278.142C558.686 277.873 559.662 277.78 560.629 277.869C561.595 277.959 562.531 278.229 563.378 278.663L562.129 281.785L564.699 279.532C566.078 280.683 566.902 282.285 566.989 283.988C567.021 284.585 566.96 285.184 566.808 285.766C566.457 287.133 565.627 288.358 564.443 289.255C563.26 290.153 561.787 290.675 560.249 290.741Z" fill="black"/>
<path opacity="0.1" d="M558.233 271.734C556.589 271.899 555.005 272.359 553.367 272.454C551.728 272.549 549.925 272.189 548.89 271.025C548.408 270.35 547.97 269.65 547.58 268.927C547.133 268.291 546.521 267.765 545.799 267.394C545.24 268.388 544.978 269.499 545.038 270.615C545.115 272.183 545.815 273.671 547.009 274.801C548.202 275.932 549.807 276.627 551.522 276.758C553.237 276.888 554.946 276.445 556.328 275.51C557.71 274.575 558.672 273.213 559.032 271.679C558.764 271.689 558.496 271.709 558.233 271.734Z" fill="black"/>
<path opacity="0.1" d="M560.249 290.741C559.32 290.78 558.392 290.653 557.517 290.365C556.642 290.077 555.837 289.635 555.15 289.064C554.462 288.493 553.905 287.804 553.51 287.037C553.115 286.27 552.889 285.439 552.846 284.592C552.787 283.538 553.016 282.487 553.515 281.535C554.077 281.88 554.561 282.321 554.939 282.833C555.443 283.528 555.745 284.332 556.342 284.966C557.438 286.145 559.328 286.535 561.038 286.465C562.748 286.395 564.392 285.965 566.096 285.81C566.331 285.81 566.573 285.776 566.808 285.771C566.456 287.136 565.625 288.36 564.442 289.257C563.258 290.154 561.786 290.675 560.249 290.741Z" fill="black"/>
<path opacity="0.1" d="M543.06 301.166C542.131 301.205 541.202 301.078 540.327 300.79C539.452 300.502 538.648 300.06 537.961 299.489C537.273 298.918 536.716 298.229 536.32 297.462C535.925 296.695 535.7 295.864 535.657 295.017C535.603 294.007 535.813 293 536.27 292.08C536.845 292.432 537.346 292.875 537.75 293.388C538.298 294.098 538.643 294.887 539.284 295.566C540.479 296.78 542.49 297.205 544.298 297.17C546.106 297.135 547.739 296.74 549.482 296.62C549.053 297.887 548.207 299.004 547.058 299.817C545.909 300.63 544.513 301.101 543.06 301.166Z" fill="black"/>
<path opacity="0.1" d="M546.555 313.699C545.842 314.961 544.691 315.974 543.281 316.58C541.871 317.186 540.282 317.35 538.759 317.049C537.236 316.747 535.865 315.996 534.858 314.911C533.852 313.827 533.265 312.47 533.191 311.051C533.14 310.157 533.297 309.264 533.651 308.429C534.233 308.779 534.756 309.204 535.202 309.692C535.876 310.442 536.298 311.291 537.098 311.985C538.544 313.284 540.884 313.818 542.961 313.868C544.162 313.875 545.362 313.818 546.555 313.699Z" fill="black"/>
<path d="M528.878 323.209C528.878 323.209 534.462 323.054 536.15 321.961C537.837 320.867 544.742 319.563 545.164 321.316C545.586 323.069 553.558 330.038 547.251 330.083C540.944 330.128 532.594 329.188 530.911 328.254C529.229 327.32 528.878 323.209 528.878 323.209Z" fill="#656380"/>
<path opacity="0.2" d="M547.361 329.473C541.054 329.518 532.703 328.574 531.021 327.645C529.744 326.93 529.235 324.383 529.065 323.204H528.878C528.878 323.204 529.229 327.315 530.911 328.249C532.594 329.183 540.944 330.122 547.251 330.077C549.071 330.077 549.701 329.473 549.668 328.579C549.416 329.133 548.709 329.463 547.361 329.473Z" fill="black"/>
</g>
<defs>
<clipPath id="clip0_1_88">
<rect width="567" height="353" fill="white"/>
</clipPath>
</defs>
</svg>
